<svg data-v-fde0c5aa="" xmlns="http://www.w3.org/2000/svg" viewBox="0 0 300 300" class="font"><!----><defs data-v-fde0c5aa=""><!----></defs><rect data-v-fde0c5aa="" fill="#DCE5FC" x="0" y="0" width="300px" height="300px" class="logo-background-square"></rect><defs data-v-fde0c5aa=""><linearGradient data-v-fde0c5aa="" gradientTransform="rotate(25)" id="52eddb21-24c3-45b9-8ae7-08d472efa06b" x1="0%" y1="0%" x2="100%" y2="0%"><stop data-v-fde0c5aa="" offset="0%" stop-color="#0015D6" stop-opacity="1"></stop><stop data-v-fde0c5aa="" offset="100%" stop-color="#0989FB" stop-opacity="1"></stop></linearGradient></defs><g data-v-fde0c5aa="" id="19ce80dd-082d-4b29-890e-10276c8bc004" fill="url(#52eddb21-24c3-45b9-8ae7-08d472efa06b)" transform="matrix(3.8664324929624194,0,0,3.8664324929624194,38.60808424722377,113.19156274074412)"><path d="M3.18 10.68L5.05 10.68C5.14 10.68 5.81 10.67 6.03 10.67L6.71 12.68C6.85 13.13 7 13.24 7.35 13.24C7.60 13.24 7.83 13.20 7.98 13.10L4.77 3.60C4.65 3.57 4.35 3.56 4.19 3.56C4.00 3.56 3.72 3.57 3.57 3.60L0.36 13.10L0.39 13.15C0.56 13.19 0.70 13.22 0.91 13.22C1.08 13.22 1.26 13.20 1.39 13.17L2.20 10.67C2.42 10.67 3.08 10.68 3.18 10.68ZM3.60 6.43C3.72 6.05 3.93 5.31 4.07 4.76L4.14 4.76C4.31 5.39 4.59 6.27 4.86 7.10L5.74 9.76C5.50 9.76 5.00 9.74 4.93 9.74L3.32 9.74C3.23 9.74 2.72 9.76 2.51 9.76ZM10.95 12.36C10.61 12.36 10.43 12.17 10.43 11.76L10.43 3.57C10.43 3.11 10.35 2.87 9.87 2.87L9.49 2.87L9.41 2.95L9.41 12.05C9.41 12.81 9.88 13.22 10.60 13.22C10.89 13.22 11.34 13.17 11.62 13.13C11.63 13.08 11.63 12.99 11.63 12.92C11.63 12.71 11.61 12.50 11.54 12.36ZM18.82 9.65C18.82 7.56 18.00 6.12 16.46 6.12C15.61 6.12 14.90 6.52 14.42 7.06L14.42 6.99C14.42 6.51 14.32 6.24 13.85 6.24L13.48 6.24L13.40 6.33L13.40 16.09L13.48 16.17L13.86 16.17C14.34 16.17 14.42 15.93 14.42 15.47L14.42 12.70C14.95 13.05 15.54 13.27 16.20 13.27C17.42 13.27 18.82 12.19 18.82 9.65ZM16.27 7.03C17.04 7.03 17.77 7.77 17.77 9.65C17.77 11.58 16.94 12.38 16.10 12.38C15.46 12.38 14.88 12.07 14.42 11.75L14.42 8.15C14.88 7.43 15.61 7.03 16.27 7.03ZM25.98 8.37C25.98 7.18 25.52 6.17 24.19 6.17C23.31 6.17 22.40 6.59 21.78 7.18L21.78 3.57C21.78 3.11 21.70 2.87 21.22 2.87L20.85 2.87L20.76 2.95L20.76 13.16C20.90 13.19 21.07 13.20 21.28 13.20C21.46 13.20 21.64 13.19 21.78 13.16L21.78 8.20C22.33 7.57 23.21 7.13 23.93 7.13C24.74 7.13 24.96 7.59 24.96 8.69L24.96 12.56C24.96 13.02 25.10 13.24 25.49 13.24C25.73 13.24 26.00 13.16 26.15 13.02C26.03 12.71 25.98 12.29 25.98 11.83ZM33.42 12.73C33.07 12.39 33.03 11.96 33.03 11.37L33.03 8.48C33.03 6.97 32.31 6.15 30.86 6.15C29.88 6.15 28.81 6.50 28.11 6.80C28.11 7.08 28.28 7.45 28.48 7.62C29.20 7.29 29.99 7.04 30.76 7.04C31.53 7.04 32.02 7.42 32.02 8.47L32.02 9.17C31.51 9.07 30.95 9.04 30.48 9.04C28.92 9.04 27.86 9.74 27.86 11.30C27.86 12.29 28.52 13.33 29.88 13.33C30.80 13.33 31.56 12.78 32.07 12.28C32.19 12.74 32.44 13.08 32.94 13.26C33.15 13.16 33.35 12.91 33.42 12.73ZM30.02 12.45C29.30 12.45 28.91 11.90 28.91 11.23C28.91 10.33 29.53 9.83 30.49 9.83C31.00 9.83 31.54 9.86 32.02 9.93L32.02 11.33C31.43 12.08 30.66 12.45 30.02 12.45ZM37.04 13.16C37.20 13.19 37.41 13.20 37.59 13.20C37.76 13.20 37.97 13.19 38.12 13.16L38.12 4.51C38.30 4.51 38.72 4.52 38.89 4.52L40.08 4.52C40.53 4.52 40.74 4.38 40.74 4.05C40.74 3.89 40.71 3.72 40.66 3.60L34.50 3.60C34.47 3.77 34.45 3.92 34.45 4.06C34.45 4.20 34.47 4.37 34.50 4.52L36.29 4.52C36.47 4.52 36.86 4.51 37.04 4.51ZM45.99 10.04C46.05 9.70 46.06 9.46 46.06 9.11C46.06 7.46 45.15 6.12 43.36 6.12C41.57 6.12 40.56 7.64 40.56 9.72C40.56 11.63 41.23 13.33 43.32 13.33C44.27 13.33 45.22 12.99 45.86 12.54C45.84 12.32 45.68 12.00 45.49 11.83C44.87 12.17 44.21 12.42 43.46 12.42C42.15 12.42 41.69 11.44 41.65 10.04ZM43.36 6.92C44.55 6.92 45.01 7.90 45.01 9.06L45.01 9.24L41.65 9.24C41.72 7.85 42.31 6.92 43.36 6.92ZM47.39 12.63C47.96 12.99 48.78 13.33 49.77 13.33C51.27 13.33 52.35 12.60 52.35 11.35C52.35 10.33 51.65 9.73 50.61 9.32L49.78 9.00C49.08 8.74 48.73 8.46 48.73 7.98C48.73 7.36 49.25 6.96 49.98 6.96C50.69 6.96 51.37 7.20 51.81 7.39C52.01 7.20 52.14 6.86 52.14 6.58C51.58 6.33 50.71 6.12 50.01 6.12C48.73 6.12 47.67 6.85 47.67 8.05C47.67 9.07 48.50 9.63 49.46 10.00L50.25 10.30C50.90 10.54 51.27 10.96 51.27 11.42C51.25 12.07 50.67 12.52 49.78 12.52C49.07 12.52 48.37 12.19 47.80 11.87C47.59 12.04 47.40 12.38 47.39 12.63ZM57.22 6.29L55.44 6.31L55.44 4.21L55.36 4.13L54.98 4.13C54.52 4.13 54.43 4.37 54.43 4.83L54.43 6.30L53.44 6.29C53.41 6.43 53.40 6.54 53.40 6.68C53.40 6.83 53.41 6.94 53.44 7.08L54.43 7.07L54.43 12.05C54.43 12.81 54.92 13.22 55.71 13.22C56.25 13.22 56.69 13.19 57.12 13.13C57.15 13.08 57.15 12.99 57.15 12.92C57.15 12.71 57.11 12.50 57.05 12.36L55.99 12.36C55.58 12.36 55.44 12.12 55.44 11.77L55.44 7.07L57.22 7.08C57.25 6.94 57.26 6.83 57.26 6.68C57.26 6.54 57.25 6.43 57.22 6.29Z"></path></g><!----><!----></svg>